<svg xmlns="http://www.w3.org/2000/svg" version="1.0" width="80.000000pt" height="71.000000pt" viewBox="0 0 80.000000 71.000000" preserveAspectRatio="xMidYMid meet">

<g transform="translate(0.000000,71.000000) scale(0.100000,-0.100000)" fill="hsl(24 89% 54%)" stroke="none">
<path d="M448 700 c-44 -13 -381 -230 -407 -262 -62 -77 -33 -195 60 -243 35 -19 106 -19 139 0 33 19 65 19 84 -1 19 -18 21 -65 4 -82 -10 -10 -7 -22 12 -57 14 -25 28 -45 33 -45 19 0 67 64 77 101 17 61 3 108 -44 156 -52 52 -100 63 -167 40 -67 -24 -95 -22 -116 9 -15 23 -15 29 -2 51 16 28 342 233 371 233 22 0 58 -34 58 -56 0 -9 -14 -29 -32 -46 l-32 -30 24 -43 24 -43 46 26 c46 25 48 26 74 9 18 -13 26 -26 26 -48 0 -27 -9 -36 -90 -87 -49 -31 -90 -60 -90 -65 0 -4 12 -26 26 -48 25 -39 26 -40 49 -25 14 9 58 37 100 62 76 46 102 79 119 147 16 65 -30 140 -104 171 -29 12 -38 22 -47 58 -14 53 -63 104 -111 118 -42 11 -47 11 -84 0z"/>
</g>
</svg>